<?xml version="1.0" encoding="utf-8" ?>
<!-- Svg Vector Icons : http://www.onlinewebfonts.com/icon -->
<!DOCTYPE svg PUBLIC "-//W3C//DTD SVG 1.1//EN"
  "http://www.w3.org/Graphics/SVG/1.1/DTD/svg11.dtd">
<svg
  version="1.1"
  xmlns="http://www.w3.org/2000/svg"
  xmlns:xlink="http://www.w3.org/1999/xlink"
  x="0px"
  y="0px"
  fill="#2d4460"
  viewBox="0 0 1000 1000"
  enable-background="new 0 0 1000 1000"
  xml:space="preserve"
>
<metadata> Svg Vector Icons : http://www.onlinewebfonts.com/icon </metadata>
<g><path
      d="M935.2,763.7c1.2-3.4,1.8-7.1,1.8-11V349.8c0-19.1-15.5-34.6-34.6-34.6H709.8v428.9c0,6.9-1.2,13.5-3.4,19.6h-22.6c1.2-3.4,1.8-7.1,1.8-11V199.4c0-19.1-15.5-34.6-34.6-34.6H349c-19.1,0-34.6,15.5-34.6,34.6v553.4c0,3.8,0.7,7.5,1.8,11h-22.6c-2.2-6.1-3.4-12.7-3.4-19.6V315.2H102.2c-19.1,0-34.6,15.5-34.6,34.6v402.9c0,3.8,0.7,7.5,1.8,11H10v71.5h980v-71.5H935.2L935.2,763.7z M171.4,622.5h-49.6v-49.6h49.6V622.5L171.4,622.5z M171.4,535.4h-49.6v-49.6h49.6V535.4L171.4,535.4z M171.4,451.3h-49.6v-49.6h49.6V451.3L171.4,451.3z M248.7,622.5h-49.6v-49.6h49.6V622.5L248.7,622.5z M248.7,535.4h-49.6v-49.6h49.6V535.4L248.7,535.4z M248.7,451.3h-49.6v-49.6h49.6V451.3L248.7,451.3z M577,761.4H431.4V579.8H577V761.4L577,761.4z M500,424.2c-67.3,0-121.9-54.6-121.9-121.9c0-67.3,54.6-121.9,121.9-121.9c67.3,0,121.9,54.6,121.9,121.9C621.9,369.6,567.3,424.2,500,424.2L500,424.2z M814.8,622.5h-49.6v-49.6h49.6V622.5L814.8,622.5z M814.8,535.4h-49.6v-49.6h49.6V535.4L814.8,535.4z M814.8,451.3h-49.6v-49.6h49.6V451.3L814.8,451.3z M892,622.5h-49.6v-49.6H892V622.5L892,622.5z M892,535.4h-49.6v-49.6H892V535.4L892,535.4z M892,451.3h-49.6v-49.6H892V451.3L892,451.3z M530.3,272h46.7v60.5h-46.7v46.7h-60.5v-46.7H423V272h46.7v-46.7h60.5V272L530.3,272z"
    /></g>
</svg>
